<mxfile host="app.diagrams.net" modified="2022-12-15T09:33:01.270Z" agent="5.0 (Windows NT 10.0; Win64; x64) AppleWebKit/537.36 (KHTML, like Gecko) Chrome/84.0.4147.105 Safari/537.36" etag="xKNrDasDNFbKhOYSUQHN" version="20.3.3" type="github">
  <diagram id="7DRjaVnKbLU6Aa3on19X" name="第 1 页">
    <mxGraphModel dx="991" dy="401" grid="1" gridSize="10" guides="1" tooltips="1" connect="1" arrows="1" fold="1" page="1" pageScale="1" pageWidth="827" pageHeight="1169" math="0" shadow="0">
      <root>
        <mxCell id="0" />
        <mxCell id="1" parent="0" />
        <object label="cust_maincheck_task" d="d&#xa;&#xa;" c="" a="" id="dkACNBl6gEhKsrUPrgvQ-1">
          <mxCell style="shape=table;startSize=30;container=1;collapsible=0;childLayout=tableLayout;fontStyle=1;align=center;" vertex="1" parent="1">
            <mxGeometry y="150" width="200" height="418" as="geometry" />
          </mxCell>
        </object>
        <mxCell id="dkACNBl6gEhKsrUPrgvQ-2" value="" style="shape=tableRow;horizontal=0;startSize=0;swimlaneHead=0;swimlaneBody=0;top=0;left=0;bottom=0;right=0;collapsible=0;dropTarget=0;fillColor=none;points=[[0,0.5],[1,0.5]];portConstraint=eastwest;" vertex="1" parent="dkACNBl6gEhKsrUPrgvQ-1">
          <mxGeometry y="30" width="200" height="43" as="geometry" />
        </mxCell>
        <mxCell id="dkACNBl6gEhKsrUPrgvQ-3" value="任务编号" style="shape=partialRectangle;html=1;whiteSpace=wrap;connectable=0;fillColor=none;top=0;left=0;bottom=0;right=0;overflow=hidden;" vertex="1" parent="dkACNBl6gEhKsrUPrgvQ-2">
          <mxGeometry width="67" height="43" as="geometry">
            <mxRectangle width="67" height="43" as="alternateBounds" />
          </mxGeometry>
        </mxCell>
        <mxCell id="dkACNBl6gEhKsrUPrgvQ-4" value="" style="shape=partialRectangle;html=1;whiteSpace=wrap;connectable=0;fillColor=none;top=0;left=0;bottom=0;right=0;overflow=hidden;" vertex="1" parent="dkACNBl6gEhKsrUPrgvQ-2">
          <mxGeometry x="67" width="66" height="43" as="geometry">
            <mxRectangle width="66" height="43" as="alternateBounds" />
          </mxGeometry>
        </mxCell>
        <mxCell id="dkACNBl6gEhKsrUPrgvQ-5" value="" style="shape=partialRectangle;html=1;whiteSpace=wrap;connectable=0;fillColor=none;top=0;left=0;bottom=0;right=0;overflow=hidden;" vertex="1" parent="dkACNBl6gEhKsrUPrgvQ-2">
          <mxGeometry x="133" width="67" height="43" as="geometry">
            <mxRectangle width="67" height="43" as="alternateBounds" />
          </mxGeometry>
        </mxCell>
        <mxCell id="dkACNBl6gEhKsrUPrgvQ-6" value="" style="shape=tableRow;horizontal=0;startSize=0;swimlaneHead=0;swimlaneBody=0;top=0;left=0;bottom=0;right=0;collapsible=0;dropTarget=0;fillColor=none;points=[[0,0.5],[1,0.5]];portConstraint=eastwest;" vertex="1" parent="dkACNBl6gEhKsrUPrgvQ-1">
          <mxGeometry y="73" width="200" height="44" as="geometry" />
        </mxCell>
        <mxCell id="dkACNBl6gEhKsrUPrgvQ-7" value="任务名称" style="shape=partialRectangle;html=1;whiteSpace=wrap;connectable=0;fillColor=none;top=0;left=0;bottom=0;right=0;overflow=hidden;" vertex="1" parent="dkACNBl6gEhKsrUPrgvQ-6">
          <mxGeometry width="67" height="44" as="geometry">
            <mxRectangle width="67" height="44" as="alternateBounds" />
          </mxGeometry>
        </mxCell>
        <mxCell id="dkACNBl6gEhKsrUPrgvQ-8" value="" style="shape=partialRectangle;html=1;whiteSpace=wrap;connectable=0;fillColor=none;top=0;left=0;bottom=0;right=0;overflow=hidden;" vertex="1" parent="dkACNBl6gEhKsrUPrgvQ-6">
          <mxGeometry x="67" width="66" height="44" as="geometry">
            <mxRectangle width="66" height="44" as="alternateBounds" />
          </mxGeometry>
        </mxCell>
        <mxCell id="dkACNBl6gEhKsrUPrgvQ-9" value="" style="shape=partialRectangle;html=1;whiteSpace=wrap;connectable=0;fillColor=none;top=0;left=0;bottom=0;right=0;overflow=hidden;" vertex="1" parent="dkACNBl6gEhKsrUPrgvQ-6">
          <mxGeometry x="133" width="67" height="44" as="geometry">
            <mxRectangle width="67" height="44" as="alternateBounds" />
          </mxGeometry>
        </mxCell>
        <mxCell id="dkACNBl6gEhKsrUPrgvQ-10" value="" style="shape=tableRow;horizontal=0;startSize=0;swimlaneHead=0;swimlaneBody=0;top=0;left=0;bottom=0;right=0;collapsible=0;dropTarget=0;fillColor=none;points=[[0,0.5],[1,0.5]];portConstraint=eastwest;" vertex="1" parent="dkACNBl6gEhKsrUPrgvQ-1">
          <mxGeometry y="117" width="200" height="43" as="geometry" />
        </mxCell>
        <mxCell id="dkACNBl6gEhKsrUPrgvQ-11" value="定时任务配置编号" style="shape=partialRectangle;html=1;whiteSpace=wrap;connectable=0;fillColor=none;top=0;left=0;bottom=0;right=0;overflow=hidden;" vertex="1" parent="dkACNBl6gEhKsrUPrgvQ-10">
          <mxGeometry width="67" height="43" as="geometry">
            <mxRectangle width="67" height="43" as="alternateBounds" />
          </mxGeometry>
        </mxCell>
        <mxCell id="dkACNBl6gEhKsrUPrgvQ-12" value="" style="shape=partialRectangle;html=1;whiteSpace=wrap;connectable=0;fillColor=none;top=0;left=0;bottom=0;right=0;overflow=hidden;" vertex="1" parent="dkACNBl6gEhKsrUPrgvQ-10">
          <mxGeometry x="67" width="66" height="43" as="geometry">
            <mxRectangle width="66" height="43" as="alternateBounds" />
          </mxGeometry>
        </mxCell>
        <mxCell id="dkACNBl6gEhKsrUPrgvQ-13" value="" style="shape=partialRectangle;html=1;whiteSpace=wrap;connectable=0;fillColor=none;top=0;left=0;bottom=0;right=0;overflow=hidden;" vertex="1" parent="dkACNBl6gEhKsrUPrgvQ-10">
          <mxGeometry x="133" width="67" height="43" as="geometry">
            <mxRectangle width="67" height="43" as="alternateBounds" />
          </mxGeometry>
        </mxCell>
        <mxCell id="dkACNBl6gEhKsrUPrgvQ-126" style="shape=tableRow;horizontal=0;startSize=0;swimlaneHead=0;swimlaneBody=0;top=0;left=0;bottom=0;right=0;collapsible=0;dropTarget=0;fillColor=none;points=[[0,0.5],[1,0.5]];portConstraint=eastwest;" vertex="1" parent="dkACNBl6gEhKsrUPrgvQ-1">
          <mxGeometry y="160" width="200" height="43" as="geometry" />
        </mxCell>
        <mxCell id="dkACNBl6gEhKsrUPrgvQ-127" value="资产包号列表" style="shape=partialRectangle;html=1;whiteSpace=wrap;connectable=0;fillColor=none;top=0;left=0;bottom=0;right=0;overflow=hidden;" vertex="1" parent="dkACNBl6gEhKsrUPrgvQ-126">
          <mxGeometry width="67" height="43" as="geometry">
            <mxRectangle width="67" height="43" as="alternateBounds" />
          </mxGeometry>
        </mxCell>
        <mxCell id="dkACNBl6gEhKsrUPrgvQ-128" style="shape=partialRectangle;html=1;whiteSpace=wrap;connectable=0;fillColor=none;top=0;left=0;bottom=0;right=0;overflow=hidden;" vertex="1" parent="dkACNBl6gEhKsrUPrgvQ-126">
          <mxGeometry x="67" width="66" height="43" as="geometry">
            <mxRectangle width="66" height="43" as="alternateBounds" />
          </mxGeometry>
        </mxCell>
        <mxCell id="dkACNBl6gEhKsrUPrgvQ-129" style="shape=partialRectangle;html=1;whiteSpace=wrap;connectable=0;fillColor=none;top=0;left=0;bottom=0;right=0;overflow=hidden;" vertex="1" parent="dkACNBl6gEhKsrUPrgvQ-126">
          <mxGeometry x="133" width="67" height="43" as="geometry">
            <mxRectangle width="67" height="43" as="alternateBounds" />
          </mxGeometry>
        </mxCell>
        <mxCell id="dkACNBl6gEhKsrUPrgvQ-130" style="shape=tableRow;horizontal=0;startSize=0;swimlaneHead=0;swimlaneBody=0;top=0;left=0;bottom=0;right=0;collapsible=0;dropTarget=0;fillColor=none;points=[[0,0.5],[1,0.5]];portConstraint=eastwest;" vertex="1" parent="dkACNBl6gEhKsrUPrgvQ-1">
          <mxGeometry y="203" width="200" height="43" as="geometry" />
        </mxCell>
        <mxCell id="dkACNBl6gEhKsrUPrgvQ-131" value="任务处理状态" style="shape=partialRectangle;html=1;whiteSpace=wrap;connectable=0;fillColor=none;top=0;left=0;bottom=0;right=0;overflow=hidden;" vertex="1" parent="dkACNBl6gEhKsrUPrgvQ-130">
          <mxGeometry width="67" height="43" as="geometry">
            <mxRectangle width="67" height="43" as="alternateBounds" />
          </mxGeometry>
        </mxCell>
        <mxCell id="dkACNBl6gEhKsrUPrgvQ-132" style="shape=partialRectangle;html=1;whiteSpace=wrap;connectable=0;fillColor=none;top=0;left=0;bottom=0;right=0;overflow=hidden;" vertex="1" parent="dkACNBl6gEhKsrUPrgvQ-130">
          <mxGeometry x="67" width="66" height="43" as="geometry">
            <mxRectangle width="66" height="43" as="alternateBounds" />
          </mxGeometry>
        </mxCell>
        <mxCell id="dkACNBl6gEhKsrUPrgvQ-133" style="shape=partialRectangle;html=1;whiteSpace=wrap;connectable=0;fillColor=none;top=0;left=0;bottom=0;right=0;overflow=hidden;" vertex="1" parent="dkACNBl6gEhKsrUPrgvQ-130">
          <mxGeometry x="133" width="67" height="43" as="geometry">
            <mxRectangle width="67" height="43" as="alternateBounds" />
          </mxGeometry>
        </mxCell>
        <mxCell id="dkACNBl6gEhKsrUPrgvQ-134" style="shape=tableRow;horizontal=0;startSize=0;swimlaneHead=0;swimlaneBody=0;top=0;left=0;bottom=0;right=0;collapsible=0;dropTarget=0;fillColor=none;points=[[0,0.5],[1,0.5]];portConstraint=eastwest;" vertex="1" parent="dkACNBl6gEhKsrUPrgvQ-1">
          <mxGeometry y="246" width="200" height="43" as="geometry" />
        </mxCell>
        <mxCell id="dkACNBl6gEhKsrUPrgvQ-135" value="创建人" style="shape=partialRectangle;html=1;whiteSpace=wrap;connectable=0;fillColor=none;top=0;left=0;bottom=0;right=0;overflow=hidden;" vertex="1" parent="dkACNBl6gEhKsrUPrgvQ-134">
          <mxGeometry width="67" height="43" as="geometry">
            <mxRectangle width="67" height="43" as="alternateBounds" />
          </mxGeometry>
        </mxCell>
        <mxCell id="dkACNBl6gEhKsrUPrgvQ-136" style="shape=partialRectangle;html=1;whiteSpace=wrap;connectable=0;fillColor=none;top=0;left=0;bottom=0;right=0;overflow=hidden;" vertex="1" parent="dkACNBl6gEhKsrUPrgvQ-134">
          <mxGeometry x="67" width="66" height="43" as="geometry">
            <mxRectangle width="66" height="43" as="alternateBounds" />
          </mxGeometry>
        </mxCell>
        <mxCell id="dkACNBl6gEhKsrUPrgvQ-137" style="shape=partialRectangle;html=1;whiteSpace=wrap;connectable=0;fillColor=none;top=0;left=0;bottom=0;right=0;overflow=hidden;" vertex="1" parent="dkACNBl6gEhKsrUPrgvQ-134">
          <mxGeometry x="133" width="67" height="43" as="geometry">
            <mxRectangle width="67" height="43" as="alternateBounds" />
          </mxGeometry>
        </mxCell>
        <mxCell id="dkACNBl6gEhKsrUPrgvQ-138" style="shape=tableRow;horizontal=0;startSize=0;swimlaneHead=0;swimlaneBody=0;top=0;left=0;bottom=0;right=0;collapsible=0;dropTarget=0;fillColor=none;points=[[0,0.5],[1,0.5]];portConstraint=eastwest;" vertex="1" parent="dkACNBl6gEhKsrUPrgvQ-1">
          <mxGeometry y="289" width="200" height="43" as="geometry" />
        </mxCell>
        <mxCell id="dkACNBl6gEhKsrUPrgvQ-139" value="任务创建时间" style="shape=partialRectangle;html=1;whiteSpace=wrap;connectable=0;fillColor=none;top=0;left=0;bottom=0;right=0;overflow=hidden;" vertex="1" parent="dkACNBl6gEhKsrUPrgvQ-138">
          <mxGeometry width="67" height="43" as="geometry">
            <mxRectangle width="67" height="43" as="alternateBounds" />
          </mxGeometry>
        </mxCell>
        <mxCell id="dkACNBl6gEhKsrUPrgvQ-140" style="shape=partialRectangle;html=1;whiteSpace=wrap;connectable=0;fillColor=none;top=0;left=0;bottom=0;right=0;overflow=hidden;" vertex="1" parent="dkACNBl6gEhKsrUPrgvQ-138">
          <mxGeometry x="67" width="66" height="43" as="geometry">
            <mxRectangle width="66" height="43" as="alternateBounds" />
          </mxGeometry>
        </mxCell>
        <mxCell id="dkACNBl6gEhKsrUPrgvQ-141" style="shape=partialRectangle;html=1;whiteSpace=wrap;connectable=0;fillColor=none;top=0;left=0;bottom=0;right=0;overflow=hidden;" vertex="1" parent="dkACNBl6gEhKsrUPrgvQ-138">
          <mxGeometry x="133" width="67" height="43" as="geometry">
            <mxRectangle width="67" height="43" as="alternateBounds" />
          </mxGeometry>
        </mxCell>
        <mxCell id="dkACNBl6gEhKsrUPrgvQ-146" style="shape=tableRow;horizontal=0;startSize=0;swimlaneHead=0;swimlaneBody=0;top=0;left=0;bottom=0;right=0;collapsible=0;dropTarget=0;fillColor=none;points=[[0,0.5],[1,0.5]];portConstraint=eastwest;" vertex="1" parent="dkACNBl6gEhKsrUPrgvQ-1">
          <mxGeometry y="332" width="200" height="43" as="geometry" />
        </mxCell>
        <mxCell id="dkACNBl6gEhKsrUPrgvQ-147" value="任务开始时间" style="shape=partialRectangle;html=1;whiteSpace=wrap;connectable=0;fillColor=none;top=0;left=0;bottom=0;right=0;overflow=hidden;" vertex="1" parent="dkACNBl6gEhKsrUPrgvQ-146">
          <mxGeometry width="67" height="43" as="geometry">
            <mxRectangle width="67" height="43" as="alternateBounds" />
          </mxGeometry>
        </mxCell>
        <mxCell id="dkACNBl6gEhKsrUPrgvQ-148" style="shape=partialRectangle;html=1;whiteSpace=wrap;connectable=0;fillColor=none;top=0;left=0;bottom=0;right=0;overflow=hidden;" vertex="1" parent="dkACNBl6gEhKsrUPrgvQ-146">
          <mxGeometry x="67" width="66" height="43" as="geometry">
            <mxRectangle width="66" height="43" as="alternateBounds" />
          </mxGeometry>
        </mxCell>
        <mxCell id="dkACNBl6gEhKsrUPrgvQ-149" style="shape=partialRectangle;html=1;whiteSpace=wrap;connectable=0;fillColor=none;top=0;left=0;bottom=0;right=0;overflow=hidden;" vertex="1" parent="dkACNBl6gEhKsrUPrgvQ-146">
          <mxGeometry x="133" width="67" height="43" as="geometry">
            <mxRectangle width="67" height="43" as="alternateBounds" />
          </mxGeometry>
        </mxCell>
        <mxCell id="dkACNBl6gEhKsrUPrgvQ-142" style="shape=tableRow;horizontal=0;startSize=0;swimlaneHead=0;swimlaneBody=0;top=0;left=0;bottom=0;right=0;collapsible=0;dropTarget=0;fillColor=none;points=[[0,0.5],[1,0.5]];portConstraint=eastwest;" vertex="1" parent="dkACNBl6gEhKsrUPrgvQ-1">
          <mxGeometry y="375" width="200" height="43" as="geometry" />
        </mxCell>
        <mxCell id="dkACNBl6gEhKsrUPrgvQ-143" value="任务结束时间" style="shape=partialRectangle;html=1;whiteSpace=wrap;connectable=0;fillColor=none;top=0;left=0;bottom=0;right=0;overflow=hidden;" vertex="1" parent="dkACNBl6gEhKsrUPrgvQ-142">
          <mxGeometry width="67" height="43" as="geometry">
            <mxRectangle width="67" height="43" as="alternateBounds" />
          </mxGeometry>
        </mxCell>
        <mxCell id="dkACNBl6gEhKsrUPrgvQ-144" style="shape=partialRectangle;html=1;whiteSpace=wrap;connectable=0;fillColor=none;top=0;left=0;bottom=0;right=0;overflow=hidden;" vertex="1" parent="dkACNBl6gEhKsrUPrgvQ-142">
          <mxGeometry x="67" width="66" height="43" as="geometry">
            <mxRectangle width="66" height="43" as="alternateBounds" />
          </mxGeometry>
        </mxCell>
        <mxCell id="dkACNBl6gEhKsrUPrgvQ-145" style="shape=partialRectangle;html=1;whiteSpace=wrap;connectable=0;fillColor=none;top=0;left=0;bottom=0;right=0;overflow=hidden;" vertex="1" parent="dkACNBl6gEhKsrUPrgvQ-142">
          <mxGeometry x="133" width="67" height="43" as="geometry">
            <mxRectangle width="67" height="43" as="alternateBounds" />
          </mxGeometry>
        </mxCell>
        <mxCell id="dkACNBl6gEhKsrUPrgvQ-14" value="cust_maincheck_task_content" style="shape=table;startSize=30;container=1;collapsible=0;childLayout=tableLayout;fontStyle=1;align=center;" vertex="1" parent="1">
          <mxGeometry x="290" y="20" width="180" height="214" as="geometry" />
        </mxCell>
        <mxCell id="dkACNBl6gEhKsrUPrgvQ-15" value="" style="shape=tableRow;horizontal=0;startSize=0;swimlaneHead=0;swimlaneBody=0;top=0;left=0;bottom=0;right=0;collapsible=0;dropTarget=0;fillColor=none;points=[[0,0.5],[1,0.5]];portConstraint=eastwest;" vertex="1" parent="dkACNBl6gEhKsrUPrgvQ-14">
          <mxGeometry y="30" width="180" height="37" as="geometry" />
        </mxCell>
        <mxCell id="dkACNBl6gEhKsrUPrgvQ-16" value="主表编号" style="shape=partialRectangle;html=1;whiteSpace=wrap;connectable=0;fillColor=none;top=0;left=0;bottom=0;right=0;overflow=hidden;" vertex="1" parent="dkACNBl6gEhKsrUPrgvQ-15">
          <mxGeometry width="60" height="37" as="geometry">
            <mxRectangle width="60" height="37" as="alternateBounds" />
          </mxGeometry>
        </mxCell>
        <mxCell id="dkACNBl6gEhKsrUPrgvQ-17" value="" style="shape=partialRectangle;html=1;whiteSpace=wrap;connectable=0;fillColor=none;top=0;left=0;bottom=0;right=0;overflow=hidden;" vertex="1" parent="dkACNBl6gEhKsrUPrgvQ-15">
          <mxGeometry x="60" width="60" height="37" as="geometry">
            <mxRectangle width="60" height="37" as="alternateBounds" />
          </mxGeometry>
        </mxCell>
        <mxCell id="dkACNBl6gEhKsrUPrgvQ-18" value="" style="shape=partialRectangle;html=1;whiteSpace=wrap;connectable=0;fillColor=none;top=0;left=0;bottom=0;right=0;overflow=hidden;" vertex="1" parent="dkACNBl6gEhKsrUPrgvQ-15">
          <mxGeometry x="120" width="60" height="37" as="geometry">
            <mxRectangle width="60" height="37" as="alternateBounds" />
          </mxGeometry>
        </mxCell>
        <mxCell id="dkACNBl6gEhKsrUPrgvQ-19" value="" style="shape=tableRow;horizontal=0;startSize=0;swimlaneHead=0;swimlaneBody=0;top=0;left=0;bottom=0;right=0;collapsible=0;dropTarget=0;fillColor=none;points=[[0,0.5],[1,0.5]];portConstraint=eastwest;" vertex="1" parent="dkACNBl6gEhKsrUPrgvQ-14">
          <mxGeometry y="67" width="180" height="36" as="geometry" />
        </mxCell>
        <mxCell id="dkACNBl6gEhKsrUPrgvQ-20" value="主体名称" style="shape=partialRectangle;html=1;whiteSpace=wrap;connectable=0;fillColor=none;top=0;left=0;bottom=0;right=0;overflow=hidden;" vertex="1" parent="dkACNBl6gEhKsrUPrgvQ-19">
          <mxGeometry width="60" height="36" as="geometry">
            <mxRectangle width="60" height="36" as="alternateBounds" />
          </mxGeometry>
        </mxCell>
        <mxCell id="dkACNBl6gEhKsrUPrgvQ-21" value="" style="shape=partialRectangle;html=1;whiteSpace=wrap;connectable=0;fillColor=none;top=0;left=0;bottom=0;right=0;overflow=hidden;" vertex="1" parent="dkACNBl6gEhKsrUPrgvQ-19">
          <mxGeometry x="60" width="60" height="36" as="geometry">
            <mxRectangle width="60" height="36" as="alternateBounds" />
          </mxGeometry>
        </mxCell>
        <mxCell id="dkACNBl6gEhKsrUPrgvQ-22" value="" style="shape=partialRectangle;html=1;whiteSpace=wrap;connectable=0;fillColor=none;top=0;left=0;bottom=0;right=0;overflow=hidden;" vertex="1" parent="dkACNBl6gEhKsrUPrgvQ-19">
          <mxGeometry x="120" width="60" height="36" as="geometry">
            <mxRectangle width="60" height="36" as="alternateBounds" />
          </mxGeometry>
        </mxCell>
        <mxCell id="dkACNBl6gEhKsrUPrgvQ-23" value="" style="shape=tableRow;horizontal=0;startSize=0;swimlaneHead=0;swimlaneBody=0;top=0;left=0;bottom=0;right=0;collapsible=0;dropTarget=0;fillColor=none;points=[[0,0.5],[1,0.5]];portConstraint=eastwest;" vertex="1" parent="dkACNBl6gEhKsrUPrgvQ-14">
          <mxGeometry y="103" width="180" height="37" as="geometry" />
        </mxCell>
        <mxCell id="dkACNBl6gEhKsrUPrgvQ-24" value="包号" style="shape=partialRectangle;html=1;whiteSpace=wrap;connectable=0;fillColor=none;top=0;left=0;bottom=0;right=0;overflow=hidden;" vertex="1" parent="dkACNBl6gEhKsrUPrgvQ-23">
          <mxGeometry width="60" height="37" as="geometry">
            <mxRectangle width="60" height="37" as="alternateBounds" />
          </mxGeometry>
        </mxCell>
        <mxCell id="dkACNBl6gEhKsrUPrgvQ-25" value="" style="shape=partialRectangle;html=1;whiteSpace=wrap;connectable=0;fillColor=none;top=0;left=0;bottom=0;right=0;overflow=hidden;" vertex="1" parent="dkACNBl6gEhKsrUPrgvQ-23">
          <mxGeometry x="60" width="60" height="37" as="geometry">
            <mxRectangle width="60" height="37" as="alternateBounds" />
          </mxGeometry>
        </mxCell>
        <mxCell id="dkACNBl6gEhKsrUPrgvQ-26" value="" style="shape=partialRectangle;html=1;whiteSpace=wrap;connectable=0;fillColor=none;top=0;left=0;bottom=0;right=0;overflow=hidden;" vertex="1" parent="dkACNBl6gEhKsrUPrgvQ-23">
          <mxGeometry x="120" width="60" height="37" as="geometry">
            <mxRectangle width="60" height="37" as="alternateBounds" />
          </mxGeometry>
        </mxCell>
        <mxCell id="dkACNBl6gEhKsrUPrgvQ-118" style="shape=tableRow;horizontal=0;startSize=0;swimlaneHead=0;swimlaneBody=0;top=0;left=0;bottom=0;right=0;collapsible=0;dropTarget=0;fillColor=none;points=[[0,0.5],[1,0.5]];portConstraint=eastwest;" vertex="1" parent="dkACNBl6gEhKsrUPrgvQ-14">
          <mxGeometry y="140" width="180" height="37" as="geometry" />
        </mxCell>
        <mxCell id="dkACNBl6gEhKsrUPrgvQ-119" value="是否选中" style="shape=partialRectangle;html=1;whiteSpace=wrap;connectable=0;fillColor=none;top=0;left=0;bottom=0;right=0;overflow=hidden;" vertex="1" parent="dkACNBl6gEhKsrUPrgvQ-118">
          <mxGeometry width="60" height="37" as="geometry">
            <mxRectangle width="60" height="37" as="alternateBounds" />
          </mxGeometry>
        </mxCell>
        <mxCell id="dkACNBl6gEhKsrUPrgvQ-120" style="shape=partialRectangle;html=1;whiteSpace=wrap;connectable=0;fillColor=none;top=0;left=0;bottom=0;right=0;overflow=hidden;" vertex="1" parent="dkACNBl6gEhKsrUPrgvQ-118">
          <mxGeometry x="60" width="60" height="37" as="geometry">
            <mxRectangle width="60" height="37" as="alternateBounds" />
          </mxGeometry>
        </mxCell>
        <mxCell id="dkACNBl6gEhKsrUPrgvQ-121" style="shape=partialRectangle;html=1;whiteSpace=wrap;connectable=0;fillColor=none;top=0;left=0;bottom=0;right=0;overflow=hidden;" vertex="1" parent="dkACNBl6gEhKsrUPrgvQ-118">
          <mxGeometry x="120" width="60" height="37" as="geometry">
            <mxRectangle width="60" height="37" as="alternateBounds" />
          </mxGeometry>
        </mxCell>
        <mxCell id="dkACNBl6gEhKsrUPrgvQ-122" style="shape=tableRow;horizontal=0;startSize=0;swimlaneHead=0;swimlaneBody=0;top=0;left=0;bottom=0;right=0;collapsible=0;dropTarget=0;fillColor=none;points=[[0,0.5],[1,0.5]];portConstraint=eastwest;" vertex="1" parent="dkACNBl6gEhKsrUPrgvQ-14">
          <mxGeometry y="177" width="180" height="37" as="geometry" />
        </mxCell>
        <mxCell id="dkACNBl6gEhKsrUPrgvQ-123" value="导入方式" style="shape=partialRectangle;html=1;whiteSpace=wrap;connectable=0;fillColor=none;top=0;left=0;bottom=0;right=0;overflow=hidden;" vertex="1" parent="dkACNBl6gEhKsrUPrgvQ-122">
          <mxGeometry width="60" height="37" as="geometry">
            <mxRectangle width="60" height="37" as="alternateBounds" />
          </mxGeometry>
        </mxCell>
        <mxCell id="dkACNBl6gEhKsrUPrgvQ-124" style="shape=partialRectangle;html=1;whiteSpace=wrap;connectable=0;fillColor=none;top=0;left=0;bottom=0;right=0;overflow=hidden;" vertex="1" parent="dkACNBl6gEhKsrUPrgvQ-122">
          <mxGeometry x="60" width="60" height="37" as="geometry">
            <mxRectangle width="60" height="37" as="alternateBounds" />
          </mxGeometry>
        </mxCell>
        <mxCell id="dkACNBl6gEhKsrUPrgvQ-125" value="包关联，导入名单" style="shape=partialRectangle;html=1;whiteSpace=wrap;connectable=0;fillColor=none;top=0;left=0;bottom=0;right=0;overflow=hidden;" vertex="1" parent="dkACNBl6gEhKsrUPrgvQ-122">
          <mxGeometry x="120" width="60" height="37" as="geometry">
            <mxRectangle width="60" height="37" as="alternateBounds" />
          </mxGeometry>
        </mxCell>
        <mxCell id="dkACNBl6gEhKsrUPrgvQ-27" value="cust_maincheck_task_config" style="shape=table;startSize=30;container=1;collapsible=0;childLayout=tableLayout;fontStyle=1;align=center;points=[[0,0,0,0,0],[0,0.25,0,0,0],[0,0.5,0,0,0],[0,0.75,0,0,0],[0,1,0,0,0],[0.25,0,0,0,0],[0.25,1,0,0,0],[0.5,0,0,0,0],[0.5,1,0,0,0],[0.75,0,0,0,0],[0.75,1,0,0,0],[1,0,0,0,0],[1,0.25,0,0,0],[1,0.5,0,0,0],[1,0.75,0,0,0],[1,1,0,0,0]];" vertex="1" parent="1">
          <mxGeometry x="280" y="280" width="250" height="360" as="geometry" />
        </mxCell>
        <mxCell id="dkACNBl6gEhKsrUPrgvQ-28" value="" style="shape=tableRow;horizontal=0;startSize=0;swimlaneHead=0;swimlaneBody=0;top=0;left=0;bottom=0;right=0;collapsible=0;dropTarget=0;fillColor=none;points=[[0,0.5],[1,0.5]];portConstraint=eastwest;" vertex="1" parent="dkACNBl6gEhKsrUPrgvQ-27">
          <mxGeometry y="30" width="250" height="40" as="geometry" />
        </mxCell>
        <mxCell id="dkACNBl6gEhKsrUPrgvQ-29" value="主任务编号" style="shape=partialRectangle;html=1;whiteSpace=wrap;connectable=0;fillColor=none;top=0;left=0;bottom=0;right=0;overflow=hidden;" vertex="1" parent="dkACNBl6gEhKsrUPrgvQ-28">
          <mxGeometry width="60" height="40" as="geometry">
            <mxRectangle width="60" height="40" as="alternateBounds" />
          </mxGeometry>
        </mxCell>
        <mxCell id="dkACNBl6gEhKsrUPrgvQ-30" value="" style="shape=partialRectangle;html=1;whiteSpace=wrap;connectable=0;fillColor=none;top=0;left=0;bottom=0;right=0;overflow=hidden;" vertex="1" parent="dkACNBl6gEhKsrUPrgvQ-28">
          <mxGeometry x="60" width="60" height="40" as="geometry">
            <mxRectangle width="60" height="40" as="alternateBounds" />
          </mxGeometry>
        </mxCell>
        <mxCell id="dkACNBl6gEhKsrUPrgvQ-31" value="" style="shape=partialRectangle;html=1;whiteSpace=wrap;connectable=0;fillColor=none;top=0;left=0;bottom=0;right=0;overflow=hidden;" vertex="1" parent="dkACNBl6gEhKsrUPrgvQ-28">
          <mxGeometry x="120" width="130" height="40" as="geometry">
            <mxRectangle width="130" height="40" as="alternateBounds" />
          </mxGeometry>
        </mxCell>
        <mxCell id="dkACNBl6gEhKsrUPrgvQ-32" value="" style="shape=tableRow;horizontal=0;startSize=0;swimlaneHead=0;swimlaneBody=0;top=0;left=0;bottom=0;right=0;collapsible=0;dropTarget=0;fillColor=none;points=[[0,0.5],[1,0.5]];portConstraint=eastwest;" vertex="1" parent="dkACNBl6gEhKsrUPrgvQ-27">
          <mxGeometry y="70" width="250" height="100" as="geometry" />
        </mxCell>
        <mxCell id="dkACNBl6gEhKsrUPrgvQ-33" value="配置类型" style="shape=partialRectangle;html=1;whiteSpace=wrap;connectable=0;fillColor=none;top=0;left=0;bottom=0;right=0;overflow=hidden;" vertex="1" parent="dkACNBl6gEhKsrUPrgvQ-32">
          <mxGeometry width="60" height="100" as="geometry">
            <mxRectangle width="60" height="100" as="alternateBounds" />
          </mxGeometry>
        </mxCell>
        <mxCell id="dkACNBl6gEhKsrUPrgvQ-34" value="" style="shape=partialRectangle;html=1;whiteSpace=wrap;connectable=0;fillColor=none;top=0;left=0;bottom=0;right=0;overflow=hidden;" vertex="1" parent="dkACNBl6gEhKsrUPrgvQ-32">
          <mxGeometry x="60" width="60" height="100" as="geometry">
            <mxRectangle width="60" height="100" as="alternateBounds" />
          </mxGeometry>
        </mxCell>
        <mxCell id="dkACNBl6gEhKsrUPrgvQ-35" value="&#xa;&lt;span style=&quot;color: rgb(0, 0, 0); font-family: Helvetica; font-size: 12px; font-style: normal; font-variant-ligatures: normal; font-variant-caps: normal; font-weight: 400; letter-spacing: normal; orphans: 2; text-align: center; text-indent: 0px; text-transform: none; widows: 2; word-spacing: 0px; -webkit-text-stroke-width: 0px; background-color: rgb(248, 249, 250); text-decoration-style: initial; text-decoration-color: initial; float: none; display: inline !important;&quot;&gt;基础诚信核查&lt;/span&gt;&lt;br style=&quot;color: rgb(0, 0, 0); font-family: Helvetica; font-size: 12px; font-style: normal; font-variant-ligatures: normal; font-variant-caps: normal; font-weight: 400; letter-spacing: normal; orphans: 2; text-align: center; text-indent: 0px; text-transform: none; widows: 2; word-spacing: 0px; -webkit-text-stroke-width: 0px; background-color: rgb(248, 249, 250); text-decoration-style: initial; text-decoration-color: initial;&quot;&gt;&lt;span style=&quot;color: rgb(0, 0, 0); font-family: Helvetica; font-size: 12px; font-style: normal; font-variant-ligatures: normal; font-variant-caps: normal; font-weight: 400; letter-spacing: normal; orphans: 2; text-align: center; text-indent: 0px; text-transform: none; widows: 2; word-spacing: 0px; -webkit-text-stroke-width: 0px; background-color: rgb(248, 249, 250); text-decoration-style: initial; text-decoration-color: initial; float: none; display: inline !important;&quot;&gt;金融诚信核查&lt;/span&gt;&lt;br style=&quot;color: rgb(0, 0, 0); font-family: Helvetica; font-size: 12px; font-style: normal; font-variant-ligatures: normal; font-variant-caps: normal; font-weight: 400; letter-spacing: normal; orphans: 2; text-align: center; text-indent: 0px; text-transform: none; widows: 2; word-spacing: 0px; -webkit-text-stroke-width: 0px; background-color: rgb(248, 249, 250); text-decoration-style: initial; text-decoration-color: initial;&quot;&gt;&lt;span style=&quot;color: rgb(0, 0, 0); font-family: Helvetica; font-size: 12px; font-style: normal; font-variant-ligatures: normal; font-variant-caps: normal; font-weight: 400; letter-spacing: normal; orphans: 2; text-align: center; text-indent: 0px; text-transform: none; widows: 2; word-spacing: 0px; -webkit-text-stroke-width: 0px; background-color: rgb(248, 249, 250); text-decoration-style: initial; text-decoration-color: initial; float: none; display: inline !important;&quot;&gt;领域诚信核查&lt;/span&gt;&lt;br style=&quot;color: rgb(0, 0, 0); font-family: Helvetica; font-size: 12px; font-style: normal; font-variant-ligatures: normal; font-variant-caps: normal; font-weight: 400; letter-spacing: normal; orphans: 2; text-align: center; text-indent: 0px; text-transform: none; widows: 2; word-spacing: 0px; -webkit-text-stroke-width: 0px; background-color: rgb(248, 249, 250); text-decoration-style: initial; text-decoration-color: initial;&quot;&gt;&lt;span style=&quot;color: rgb(0, 0, 0); font-family: Helvetica; font-size: 12px; font-style: normal; font-variant-ligatures: normal; font-variant-caps: normal; font-weight: 400; letter-spacing: normal; orphans: 2; text-align: center; text-indent: 0px; text-transform: none; widows: 2; word-spacing: 0px; -webkit-text-stroke-width: 0px; background-color: rgb(248, 249, 250); text-decoration-style: initial; text-decoration-color: initial; float: none; display: inline !important;&quot;&gt;舆情信息核查&lt;/span&gt;&lt;br style=&quot;color: rgb(0, 0, 0); font-family: Helvetica; font-size: 12px; font-style: normal; font-variant-ligatures: normal; font-variant-caps: normal; font-weight: 400; letter-spacing: normal; orphans: 2; text-align: center; text-indent: 0px; text-transform: none; widows: 2; word-spacing: 0px; -webkit-text-stroke-width: 0px; background-color: rgb(248, 249, 250); text-decoration-style: initial; text-decoration-color: initial;&quot;&gt;&lt;span style=&quot;color: rgb(0, 0, 0); font-family: Helvetica; font-size: 12px; font-style: normal; font-variant-ligatures: normal; font-variant-caps: normal; font-weight: 400; letter-spacing: normal; orphans: 2; text-align: center; text-indent: 0px; text-transform: none; widows: 2; word-spacing: 0px; -webkit-text-stroke-width: 0px; background-color: rgb(248, 249, 250); text-decoration-style: initial; text-decoration-color: initial; float: none; display: inline !important;&quot;&gt;单词核查&lt;/span&gt;&lt;br style=&quot;color: rgb(0, 0, 0); font-family: Helvetica; font-size: 12px; font-style: normal; font-variant-ligatures: normal; font-variant-caps: normal; font-weight: 400; letter-spacing: normal; orphans: 2; text-align: center; text-indent: 0px; text-transform: none; widows: 2; word-spacing: 0px; -webkit-text-stroke-width: 0px; background-color: rgb(248, 249, 250); text-decoration-style: initial; text-decoration-color: initial;&quot;&gt;&lt;span style=&quot;color: rgb(0, 0, 0); font-family: Helvetica; font-size: 12px; font-style: normal; font-variant-ligatures: normal; font-variant-caps: normal; font-weight: 400; letter-spacing: normal; orphans: 2; text-align: center; text-indent: 0px; text-transform: none; widows: 2; word-spacing: 0px; -webkit-text-stroke-width: 0px; background-color: rgb(248, 249, 250); text-decoration-style: initial; text-decoration-color: initial; float: none; display: inline !important;&quot;&gt;周期核查&lt;/span&gt;&#xa;&#xa;" style="shape=partialRectangle;html=1;whiteSpace=wrap;connectable=0;fillColor=none;top=0;left=0;bottom=0;right=0;overflow=hidden;" vertex="1" parent="dkACNBl6gEhKsrUPrgvQ-32">
          <mxGeometry x="120" width="130" height="100" as="geometry">
            <mxRectangle width="130" height="100" as="alternateBounds" />
          </mxGeometry>
        </mxCell>
        <mxCell id="dkACNBl6gEhKsrUPrgvQ-36" value="" style="shape=tableRow;horizontal=0;startSize=0;swimlaneHead=0;swimlaneBody=0;top=0;left=0;bottom=0;right=0;collapsible=0;dropTarget=0;fillColor=none;points=[[0,0.5],[1,0.5]];portConstraint=eastwest;" vertex="1" parent="dkACNBl6gEhKsrUPrgvQ-27">
          <mxGeometry y="170" width="250" height="80" as="geometry" />
        </mxCell>
        <mxCell id="dkACNBl6gEhKsrUPrgvQ-37" value="配置内容" style="shape=partialRectangle;html=1;whiteSpace=wrap;connectable=0;fillColor=none;top=0;left=0;bottom=0;right=0;overflow=hidden;" vertex="1" parent="dkACNBl6gEhKsrUPrgvQ-36">
          <mxGeometry width="60" height="80" as="geometry">
            <mxRectangle width="60" height="80" as="alternateBounds" />
          </mxGeometry>
        </mxCell>
        <mxCell id="dkACNBl6gEhKsrUPrgvQ-38" value="" style="shape=partialRectangle;html=1;whiteSpace=wrap;connectable=0;fillColor=none;top=0;left=0;bottom=0;right=0;overflow=hidden;" vertex="1" parent="dkACNBl6gEhKsrUPrgvQ-36">
          <mxGeometry x="60" width="60" height="80" as="geometry">
            <mxRectangle width="60" height="80" as="alternateBounds" />
          </mxGeometry>
        </mxCell>
        <mxCell id="dkACNBl6gEhKsrUPrgvQ-39" value="[国家企业信息公示系统，信用中国...]&lt;br&gt;舆情：key1 key2&lt;br&gt;周期核查：日期+频次" style="shape=partialRectangle;html=1;whiteSpace=wrap;connectable=0;fillColor=none;top=0;left=0;bottom=0;right=0;overflow=hidden;" vertex="1" parent="dkACNBl6gEhKsrUPrgvQ-36">
          <mxGeometry x="120" width="130" height="80" as="geometry">
            <mxRectangle width="130" height="80" as="alternateBounds" />
          </mxGeometry>
        </mxCell>
        <mxCell id="dkACNBl6gEhKsrUPrgvQ-175" style="shape=tableRow;horizontal=0;startSize=0;swimlaneHead=0;swimlaneBody=0;top=0;left=0;bottom=0;right=0;collapsible=0;dropTarget=0;fillColor=none;points=[[0,0.5],[1,0.5]];portConstraint=eastwest;" vertex="1" parent="dkACNBl6gEhKsrUPrgvQ-27">
          <mxGeometry y="250" width="250" height="80" as="geometry" />
        </mxCell>
        <mxCell id="dkACNBl6gEhKsrUPrgvQ-176" value="配置是否可修改" style="shape=partialRectangle;html=1;whiteSpace=wrap;connectable=0;fillColor=none;top=0;left=0;bottom=0;right=0;overflow=hidden;" vertex="1" parent="dkACNBl6gEhKsrUPrgvQ-175">
          <mxGeometry width="60" height="80" as="geometry">
            <mxRectangle width="60" height="80" as="alternateBounds" />
          </mxGeometry>
        </mxCell>
        <mxCell id="dkACNBl6gEhKsrUPrgvQ-177" style="shape=partialRectangle;html=1;whiteSpace=wrap;connectable=0;fillColor=none;top=0;left=0;bottom=0;right=0;overflow=hidden;" vertex="1" parent="dkACNBl6gEhKsrUPrgvQ-175">
          <mxGeometry x="60" width="60" height="80" as="geometry">
            <mxRectangle width="60" height="80" as="alternateBounds" />
          </mxGeometry>
        </mxCell>
        <mxCell id="dkACNBl6gEhKsrUPrgvQ-178" value="默认不可修改，定时周期配置可修改" style="shape=partialRectangle;html=1;whiteSpace=wrap;connectable=0;fillColor=none;top=0;left=0;bottom=0;right=0;overflow=hidden;" vertex="1" parent="dkACNBl6gEhKsrUPrgvQ-175">
          <mxGeometry x="120" width="130" height="80" as="geometry">
            <mxRectangle width="130" height="80" as="alternateBounds" />
          </mxGeometry>
        </mxCell>
        <mxCell id="dkACNBl6gEhKsrUPrgvQ-179" style="shape=tableRow;horizontal=0;startSize=0;swimlaneHead=0;swimlaneBody=0;top=0;left=0;bottom=0;right=0;collapsible=0;dropTarget=0;fillColor=none;points=[[0,0.5],[1,0.5]];portConstraint=eastwest;" vertex="1" parent="dkACNBl6gEhKsrUPrgvQ-27">
          <mxGeometry y="330" width="250" height="30" as="geometry" />
        </mxCell>
        <mxCell id="dkACNBl6gEhKsrUPrgvQ-180" value="remark" style="shape=partialRectangle;html=1;whiteSpace=wrap;connectable=0;fillColor=none;top=0;left=0;bottom=0;right=0;overflow=hidden;" vertex="1" parent="dkACNBl6gEhKsrUPrgvQ-179">
          <mxGeometry width="60" height="30" as="geometry">
            <mxRectangle width="60" height="30" as="alternateBounds" />
          </mxGeometry>
        </mxCell>
        <mxCell id="dkACNBl6gEhKsrUPrgvQ-181" style="shape=partialRectangle;html=1;whiteSpace=wrap;connectable=0;fillColor=none;top=0;left=0;bottom=0;right=0;overflow=hidden;" vertex="1" parent="dkACNBl6gEhKsrUPrgvQ-179">
          <mxGeometry x="60" width="60" height="30" as="geometry">
            <mxRectangle width="60" height="30" as="alternateBounds" />
          </mxGeometry>
        </mxCell>
        <mxCell id="dkACNBl6gEhKsrUPrgvQ-182" value="备注" style="shape=partialRectangle;html=1;whiteSpace=wrap;connectable=0;fillColor=none;top=0;left=0;bottom=0;right=0;overflow=hidden;" vertex="1" parent="dkACNBl6gEhKsrUPrgvQ-179">
          <mxGeometry x="120" width="130" height="30" as="geometry">
            <mxRectangle width="130" height="30" as="alternateBounds" />
          </mxGeometry>
        </mxCell>
        <mxCell id="dkACNBl6gEhKsrUPrgvQ-150" value="cust_maincheck_result" style="shape=table;startSize=30;container=1;collapsible=0;childLayout=tableLayout;fontStyle=1;align=center;strokeColor=default;fontFamily=Helvetica;fontSize=12;fontColor=default;fillColor=default;" vertex="1" parent="1">
          <mxGeometry x="590" y="10" width="273" height="371" as="geometry" />
        </mxCell>
        <mxCell id="dkACNBl6gEhKsrUPrgvQ-151" value="" style="shape=tableRow;horizontal=0;startSize=0;swimlaneHead=0;swimlaneBody=0;top=0;left=0;bottom=0;right=0;collapsible=0;dropTarget=0;fillColor=none;points=[[0,0.5],[1,0.5]];portConstraint=eastwest;strokeColor=default;fontFamily=Helvetica;fontSize=12;fontColor=default;" vertex="1" parent="dkACNBl6gEhKsrUPrgvQ-150">
          <mxGeometry y="30" width="273" height="57" as="geometry" />
        </mxCell>
        <mxCell id="dkACNBl6gEhKsrUPrgvQ-152" value="主任务编号" style="shape=partialRectangle;html=1;whiteSpace=wrap;connectable=0;fillColor=none;top=0;left=0;bottom=0;right=0;overflow=hidden;strokeColor=default;fontFamily=Helvetica;fontSize=12;fontColor=default;startSize=30;" vertex="1" parent="dkACNBl6gEhKsrUPrgvQ-151">
          <mxGeometry width="91" height="57" as="geometry">
            <mxRectangle width="91" height="57" as="alternateBounds" />
          </mxGeometry>
        </mxCell>
        <mxCell id="dkACNBl6gEhKsrUPrgvQ-153" value="" style="shape=partialRectangle;html=1;whiteSpace=wrap;connectable=0;fillColor=none;top=0;left=0;bottom=0;right=0;overflow=hidden;strokeColor=default;fontFamily=Helvetica;fontSize=12;fontColor=default;startSize=30;" vertex="1" parent="dkACNBl6gEhKsrUPrgvQ-151">
          <mxGeometry x="91" width="91" height="57" as="geometry">
            <mxRectangle width="91" height="57" as="alternateBounds" />
          </mxGeometry>
        </mxCell>
        <mxCell id="dkACNBl6gEhKsrUPrgvQ-154" value="" style="shape=partialRectangle;html=1;whiteSpace=wrap;connectable=0;fillColor=none;top=0;left=0;bottom=0;right=0;overflow=hidden;strokeColor=default;fontFamily=Helvetica;fontSize=12;fontColor=default;startSize=30;" vertex="1" parent="dkACNBl6gEhKsrUPrgvQ-151">
          <mxGeometry x="182" width="91" height="57" as="geometry">
            <mxRectangle width="91" height="57" as="alternateBounds" />
          </mxGeometry>
        </mxCell>
        <mxCell id="dkACNBl6gEhKsrUPrgvQ-155" value="" style="shape=tableRow;horizontal=0;startSize=0;swimlaneHead=0;swimlaneBody=0;top=0;left=0;bottom=0;right=0;collapsible=0;dropTarget=0;fillColor=none;points=[[0,0.5],[1,0.5]];portConstraint=eastwest;strokeColor=default;fontFamily=Helvetica;fontSize=12;fontColor=default;" vertex="1" parent="dkACNBl6gEhKsrUPrgvQ-150">
          <mxGeometry y="87" width="273" height="56" as="geometry" />
        </mxCell>
        <mxCell id="dkACNBl6gEhKsrUPrgvQ-156" value="核查主体名称" style="shape=partialRectangle;html=1;whiteSpace=wrap;connectable=0;fillColor=none;top=0;left=0;bottom=0;right=0;overflow=hidden;strokeColor=default;fontFamily=Helvetica;fontSize=12;fontColor=default;startSize=30;" vertex="1" parent="dkACNBl6gEhKsrUPrgvQ-155">
          <mxGeometry width="91" height="56" as="geometry">
            <mxRectangle width="91" height="56" as="alternateBounds" />
          </mxGeometry>
        </mxCell>
        <mxCell id="dkACNBl6gEhKsrUPrgvQ-157" value="" style="shape=partialRectangle;html=1;whiteSpace=wrap;connectable=0;fillColor=none;top=0;left=0;bottom=0;right=0;overflow=hidden;strokeColor=default;fontFamily=Helvetica;fontSize=12;fontColor=default;startSize=30;" vertex="1" parent="dkACNBl6gEhKsrUPrgvQ-155">
          <mxGeometry x="91" width="91" height="56" as="geometry">
            <mxRectangle width="91" height="56" as="alternateBounds" />
          </mxGeometry>
        </mxCell>
        <mxCell id="dkACNBl6gEhKsrUPrgvQ-158" value="" style="shape=partialRectangle;html=1;whiteSpace=wrap;connectable=0;fillColor=none;top=0;left=0;bottom=0;right=0;overflow=hidden;strokeColor=default;fontFamily=Helvetica;fontSize=12;fontColor=default;startSize=30;" vertex="1" parent="dkACNBl6gEhKsrUPrgvQ-155">
          <mxGeometry x="182" width="91" height="56" as="geometry">
            <mxRectangle width="91" height="56" as="alternateBounds" />
          </mxGeometry>
        </mxCell>
        <mxCell id="dkACNBl6gEhKsrUPrgvQ-159" value="" style="shape=tableRow;horizontal=0;startSize=0;swimlaneHead=0;swimlaneBody=0;top=0;left=0;bottom=0;right=0;collapsible=0;dropTarget=0;fillColor=none;points=[[0,0.5],[1,0.5]];portConstraint=eastwest;strokeColor=default;fontFamily=Helvetica;fontSize=12;fontColor=default;" vertex="1" parent="dkACNBl6gEhKsrUPrgvQ-150">
          <mxGeometry y="143" width="273" height="57" as="geometry" />
        </mxCell>
        <mxCell id="dkACNBl6gEhKsrUPrgvQ-160" value="核查类型" style="shape=partialRectangle;html=1;whiteSpace=wrap;connectable=0;fillColor=none;top=0;left=0;bottom=0;right=0;overflow=hidden;strokeColor=default;fontFamily=Helvetica;fontSize=12;fontColor=default;startSize=30;" vertex="1" parent="dkACNBl6gEhKsrUPrgvQ-159">
          <mxGeometry width="91" height="57" as="geometry">
            <mxRectangle width="91" height="57" as="alternateBounds" />
          </mxGeometry>
        </mxCell>
        <mxCell id="dkACNBl6gEhKsrUPrgvQ-161" value="" style="shape=partialRectangle;html=1;whiteSpace=wrap;connectable=0;fillColor=none;top=0;left=0;bottom=0;right=0;overflow=hidden;strokeColor=default;fontFamily=Helvetica;fontSize=12;fontColor=default;startSize=30;" vertex="1" parent="dkACNBl6gEhKsrUPrgvQ-159">
          <mxGeometry x="91" width="91" height="57" as="geometry">
            <mxRectangle width="91" height="57" as="alternateBounds" />
          </mxGeometry>
        </mxCell>
        <mxCell id="dkACNBl6gEhKsrUPrgvQ-162" value="基础诚信核查&lt;br&gt;金融诚信核查&lt;br&gt;领域诚信核查&lt;br&gt;舆情信息核查" style="shape=partialRectangle;html=1;whiteSpace=wrap;connectable=0;fillColor=none;top=0;left=0;bottom=0;right=0;overflow=hidden;strokeColor=default;fontFamily=Helvetica;fontSize=12;fontColor=default;startSize=30;" vertex="1" parent="dkACNBl6gEhKsrUPrgvQ-159">
          <mxGeometry x="182" width="91" height="57" as="geometry">
            <mxRectangle width="91" height="57" as="alternateBounds" />
          </mxGeometry>
        </mxCell>
        <mxCell id="dkACNBl6gEhKsrUPrgvQ-163" style="shape=tableRow;horizontal=0;startSize=0;swimlaneHead=0;swimlaneBody=0;top=0;left=0;bottom=0;right=0;collapsible=0;dropTarget=0;fillColor=none;points=[[0,0.5],[1,0.5]];portConstraint=eastwest;strokeColor=default;fontFamily=Helvetica;fontSize=12;fontColor=default;" vertex="1" parent="dkACNBl6gEhKsrUPrgvQ-150">
          <mxGeometry y="200" width="273" height="57" as="geometry" />
        </mxCell>
        <mxCell id="dkACNBl6gEhKsrUPrgvQ-164" value="核查结果" style="shape=partialRectangle;html=1;whiteSpace=wrap;connectable=0;fillColor=none;top=0;left=0;bottom=0;right=0;overflow=hidden;strokeColor=default;fontFamily=Helvetica;fontSize=12;fontColor=default;startSize=30;" vertex="1" parent="dkACNBl6gEhKsrUPrgvQ-163">
          <mxGeometry width="91" height="57" as="geometry">
            <mxRectangle width="91" height="57" as="alternateBounds" />
          </mxGeometry>
        </mxCell>
        <mxCell id="dkACNBl6gEhKsrUPrgvQ-165" style="shape=partialRectangle;html=1;whiteSpace=wrap;connectable=0;fillColor=none;top=0;left=0;bottom=0;right=0;overflow=hidden;strokeColor=default;fontFamily=Helvetica;fontSize=12;fontColor=default;startSize=30;" vertex="1" parent="dkACNBl6gEhKsrUPrgvQ-163">
          <mxGeometry x="91" width="91" height="57" as="geometry">
            <mxRectangle width="91" height="57" as="alternateBounds" />
          </mxGeometry>
        </mxCell>
        <mxCell id="dkACNBl6gEhKsrUPrgvQ-166" style="shape=partialRectangle;html=1;whiteSpace=wrap;connectable=0;fillColor=none;top=0;left=0;bottom=0;right=0;overflow=hidden;strokeColor=default;fontFamily=Helvetica;fontSize=12;fontColor=default;startSize=30;" vertex="1" parent="dkACNBl6gEhKsrUPrgvQ-163">
          <mxGeometry x="182" width="91" height="57" as="geometry">
            <mxRectangle width="91" height="57" as="alternateBounds" />
          </mxGeometry>
        </mxCell>
        <mxCell id="dkACNBl6gEhKsrUPrgvQ-167" style="shape=tableRow;horizontal=0;startSize=0;swimlaneHead=0;swimlaneBody=0;top=0;left=0;bottom=0;right=0;collapsible=0;dropTarget=0;fillColor=none;points=[[0,0.5],[1,0.5]];portConstraint=eastwest;strokeColor=default;fontFamily=Helvetica;fontSize=12;fontColor=default;" vertex="1" parent="dkACNBl6gEhKsrUPrgvQ-150">
          <mxGeometry y="257" width="273" height="57" as="geometry" />
        </mxCell>
        <mxCell id="dkACNBl6gEhKsrUPrgvQ-168" value="核查异常描述" style="shape=partialRectangle;html=1;whiteSpace=wrap;connectable=0;fillColor=none;top=0;left=0;bottom=0;right=0;overflow=hidden;strokeColor=default;fontFamily=Helvetica;fontSize=12;fontColor=default;startSize=30;" vertex="1" parent="dkACNBl6gEhKsrUPrgvQ-167">
          <mxGeometry width="91" height="57" as="geometry">
            <mxRectangle width="91" height="57" as="alternateBounds" />
          </mxGeometry>
        </mxCell>
        <mxCell id="dkACNBl6gEhKsrUPrgvQ-169" style="shape=partialRectangle;html=1;whiteSpace=wrap;connectable=0;fillColor=none;top=0;left=0;bottom=0;right=0;overflow=hidden;strokeColor=default;fontFamily=Helvetica;fontSize=12;fontColor=default;startSize=30;" vertex="1" parent="dkACNBl6gEhKsrUPrgvQ-167">
          <mxGeometry x="91" width="91" height="57" as="geometry">
            <mxRectangle width="91" height="57" as="alternateBounds" />
          </mxGeometry>
        </mxCell>
        <mxCell id="dkACNBl6gEhKsrUPrgvQ-170" style="shape=partialRectangle;html=1;whiteSpace=wrap;connectable=0;fillColor=none;top=0;left=0;bottom=0;right=0;overflow=hidden;strokeColor=default;fontFamily=Helvetica;fontSize=12;fontColor=default;startSize=30;" vertex="1" parent="dkACNBl6gEhKsrUPrgvQ-167">
          <mxGeometry x="182" width="91" height="57" as="geometry">
            <mxRectangle width="91" height="57" as="alternateBounds" />
          </mxGeometry>
        </mxCell>
        <mxCell id="dkACNBl6gEhKsrUPrgvQ-171" style="shape=tableRow;horizontal=0;startSize=0;swimlaneHead=0;swimlaneBody=0;top=0;left=0;bottom=0;right=0;collapsible=0;dropTarget=0;fillColor=none;points=[[0,0.5],[1,0.5]];portConstraint=eastwest;strokeColor=default;fontFamily=Helvetica;fontSize=12;fontColor=default;" vertex="1" parent="dkACNBl6gEhKsrUPrgvQ-150">
          <mxGeometry y="314" width="273" height="57" as="geometry" />
        </mxCell>
        <mxCell id="dkACNBl6gEhKsrUPrgvQ-172" value="核查结果数据源" style="shape=partialRectangle;html=1;whiteSpace=wrap;connectable=0;fillColor=none;top=0;left=0;bottom=0;right=0;overflow=hidden;strokeColor=default;fontFamily=Helvetica;fontSize=12;fontColor=default;startSize=30;" vertex="1" parent="dkACNBl6gEhKsrUPrgvQ-171">
          <mxGeometry width="91" height="57" as="geometry">
            <mxRectangle width="91" height="57" as="alternateBounds" />
          </mxGeometry>
        </mxCell>
        <mxCell id="dkACNBl6gEhKsrUPrgvQ-173" style="shape=partialRectangle;html=1;whiteSpace=wrap;connectable=0;fillColor=none;top=0;left=0;bottom=0;right=0;overflow=hidden;strokeColor=default;fontFamily=Helvetica;fontSize=12;fontColor=default;startSize=30;" vertex="1" parent="dkACNBl6gEhKsrUPrgvQ-171">
          <mxGeometry x="91" width="91" height="57" as="geometry">
            <mxRectangle width="91" height="57" as="alternateBounds" />
          </mxGeometry>
        </mxCell>
        <mxCell id="dkACNBl6gEhKsrUPrgvQ-174" value="数据源：国家企业信息系统" style="shape=partialRectangle;html=1;whiteSpace=wrap;connectable=0;fillColor=none;top=0;left=0;bottom=0;right=0;overflow=hidden;strokeColor=default;fontFamily=Helvetica;fontSize=12;fontColor=default;startSize=30;" vertex="1" parent="dkACNBl6gEhKsrUPrgvQ-171">
          <mxGeometry x="182" width="91" height="57" as="geometry">
            <mxRectangle width="91" height="57" as="alternateBounds" />
          </mxGeometry>
        </mxCell>
      </root>
    </mxGraphModel>
  </diagram>
</mxfile>
